<svg width="364" height="73" viewBox="0 0 364 73" fill="none" xmlns="http://www.w3.org/2000/svg">
    <path d="M362.781 40.922C361.911 37.573 360.382 34.44 358.288 31.714C356.194 28.989 353.578 26.728 350.6 25.07C347.723 23.473 344.562 22.478 341.304 22.142L340.313 22.061H339.847H339.589C338.292 22.024 336.993 22.089 335.704 22.254L334.475 22.446C328.739 23.48 323.542 26.547 319.798 31.108C316.054 35.668 314.002 41.431 314.002 47.385C314.002 53.338 316.054 59.101 319.798 63.662C323.542 68.223 328.739 71.289 334.475 72.323L335.704 72.516C336.75 72.649 337.802 72.717 338.856 72.719H339.847H340.293L341.433 72.617C346.06 72.111 350.454 70.284 354.112 67.344C357.77 64.404 360.544 60.471 362.117 55.995C362.174 55.84 362.193 55.673 362.172 55.509C362.151 55.345 362.092 55.188 361.998 55.053C361.906 54.917 361.783 54.807 361.639 54.731C361.496 54.655 361.337 54.616 361.175 54.617H347.251C347.115 54.616 346.981 54.644 346.857 54.698C346.733 54.752 346.62 54.831 346.527 54.931H346.468C346.339 55.073 346.2 55.205 346.041 55.357L345.586 55.762L345.467 55.853C345.334 55.969 345.195 56.077 345.05 56.177L344.991 56.228C344.822 56.349 344.664 56.461 344.495 56.562L344.367 56.643L343.95 56.896L343.831 56.957C343.663 57.058 343.484 57.14 343.306 57.231L343.167 57.291L342.672 57.504H342.583L342.047 57.697H341.978H341.889L341.453 57.818H341.284L340.729 57.94H340.66L340.115 58.021H339.946H339.431H339.322C338.962 58.041 338.601 58.041 338.242 58.021H338.162H337.657H337.488L336.973 57.94H336.894L336.319 57.808H336.16L335.724 57.687L335.566 57.636L335.338 57.565H335.278L334.446 57.231L334.059 57.048L333.167 56.542L332.999 56.43L332.85 56.329L332.751 56.258L332.394 55.995L331.027 54.891L330.035 53.625V53.564L329.718 53.057C329.278 52.305 328.925 51.503 328.668 50.667H362.573C362.822 50.668 363.063 50.572 363.247 50.399C363.431 50.227 363.544 49.989 363.564 49.735C363.633 48.955 363.673 48.175 363.673 47.425C363.652 45.227 363.352 43.042 362.781 40.922ZM346.874 40.153H330.739C332.042 38.625 333.733 37.496 335.625 36.891C336.48 36.616 337.366 36.456 338.261 36.415C338.628 36.395 338.995 36.395 339.362 36.415C340.253 36.456 341.136 36.616 341.988 36.891C343.88 37.496 345.571 38.625 346.874 40.153Z" fill="#00BFFF"/>
    <path d="M287.468 6.53301H275.407C275.144 6.53301 274.892 6.63901 274.706 6.82901C274.52 7.01901 274.416 7.27701 274.416 7.54601V24.502C269.57 22.132 264.101 21.437 258.834 22.52C253.567 23.603 248.788 26.406 245.216 30.508C241.643 34.609 239.472 39.786 239.029 45.258C238.586 50.73 239.896 56.201 242.76 60.846C245.624 65.492 249.888 69.06 254.909 71.013C259.93 72.966 265.436 73.198 270.597 71.675C275.759 70.151 280.296 66.954 283.525 62.566C286.754 58.177 288.5 52.835 288.499 47.344V7.56601C288.502 7.42801 288.477 7.29001 288.426 7.16201C288.375 7.03401 288.299 6.91801 288.202 6.82201C288.106 6.72501 287.991 6.64901 287.865 6.60001C287.738 6.55001 287.604 6.52701 287.468 6.53301ZM274.396 47.344C274.396 49.51 273.767 51.628 272.59 53.428C271.412 55.229 269.738 56.633 267.78 57.461C265.822 58.29 263.667 58.506 261.589 58.083C259.51 57.659 257.601 56.616 256.103 55.083C254.605 53.551 253.586 51.599 253.173 49.474C252.761 47.349 252.975 45.147 253.787 43.147C254.6 41.146 255.974 39.437 257.737 38.235C259.501 37.033 261.573 36.392 263.692 36.394C266.532 36.397 269.255 37.552 271.262 39.605C273.269 41.658 274.396 44.442 274.396 47.344Z" fill="#00BFFF"/>
    <path d="M159.797 21.544C156.082 21.553 152.416 22.416 149.071 24.069C145.726 25.722 142.787 28.122 140.473 31.093C138.158 34.063 136.527 37.528 135.7 41.23C134.873 44.932 134.871 48.776 135.694 52.479C136.517 56.182 138.145 59.648 140.456 62.622C142.767 65.595 145.703 67.998 149.047 69.655C152.39 71.311 156.055 72.178 159.77 72.191C163.486 72.204 167.156 71.363 170.511 69.73V71.644C170.511 71.913 170.615 72.171 170.801 72.361C170.987 72.551 171.239 72.657 171.502 72.657H183.573C183.836 72.657 184.088 72.551 184.274 72.361C184.46 72.171 184.564 71.913 184.564 71.644V46.878C184.565 43.552 183.926 40.259 182.682 37.186C181.438 34.113 179.614 31.321 177.314 28.969C175.014 26.616 172.284 24.75 169.278 23.476C166.272 22.202 163.051 21.546 159.797 21.544ZM170.511 46.868C170.511 49.034 169.882 51.151 168.705 52.951C167.528 54.752 165.854 56.155 163.897 56.984C161.939 57.813 159.785 58.03 157.707 57.607C155.629 57.185 153.72 56.142 152.221 54.611C150.723 53.079 149.703 51.128 149.289 49.004C148.876 46.88 149.088 44.678 149.899 42.678C150.71 40.677 152.083 38.967 153.845 37.763C155.607 36.56 157.678 35.918 159.797 35.918C162.639 35.921 165.364 37.077 167.373 39.132C169.382 41.187 170.511 43.973 170.511 46.878V46.868Z" fill="#00BFFF"/>
    <path d="M132.394 52.48H119.44C119.266 52.478 119.095 52.523 118.944 52.61C118.793 52.697 118.666 52.824 118.578 52.976C117.59 54.632 116.191 55.991 114.524 56.917L113.771 57.301C113.383 57.474 112.986 57.627 112.582 57.757C112.159 57.89 111.729 57.999 111.293 58.081C110.851 58.163 110.404 58.213 109.955 58.233C109.586 58.254 109.215 58.254 108.845 58.233C108.397 58.213 107.95 58.163 107.507 58.081C107.072 58 106.642 57.891 106.219 57.757L105.813 57.615C103.727 56.86 101.922 55.464 100.646 53.617C99.3689 51.77 98.6829 49.565 98.6829 47.304C98.6829 45.043 99.3689 42.837 100.646 40.991C101.922 39.144 103.727 37.747 105.813 36.992L106.219 36.85C106.642 36.716 107.072 36.608 107.507 36.526C107.95 36.445 108.397 36.394 108.845 36.374C109.212 36.354 109.579 36.354 109.946 36.374C110.398 36.394 110.848 36.444 111.293 36.526C111.729 36.609 112.159 36.717 112.582 36.85C112.987 36.98 113.385 37.136 113.771 37.316C114.029 37.428 114.277 37.559 114.524 37.691C116.203 38.642 117.602 40.034 118.578 41.722C118.665 41.877 118.791 42.005 118.942 42.094C119.094 42.183 119.265 42.23 119.44 42.229H132.394C132.549 42.231 132.703 42.195 132.842 42.124C132.982 42.054 133.103 41.951 133.196 41.824C133.292 41.7 133.358 41.554 133.389 41.4C133.42 41.245 133.415 41.085 133.375 40.932C132.514 37.594 130.998 34.469 128.919 31.748C126.841 29.026 124.243 26.764 121.284 25.1H121.224C118.355 23.507 115.205 22.512 111.957 22.173L110.877 22.092H110.421H110.154C108.859 22.054 107.563 22.119 106.278 22.284L105.05 22.477L103.969 22.699C102.555 23.026 101.172 23.48 99.8359 24.057C95.3309 25.985 91.4839 29.231 88.7779 33.387C86.0729 37.543 84.6289 42.423 84.6289 47.415C84.6289 52.407 86.0729 57.288 88.7779 61.444C91.4839 65.6 95.3309 68.845 99.8359 70.774C101.163 71.342 102.536 71.789 103.94 72.111L105.02 72.333L106.249 72.526C107.294 72.66 108.347 72.728 109.4 72.729H110.391H110.847L111.977 72.627C115.22 72.287 118.364 71.288 121.224 69.69C124.205 68.024 126.821 65.751 128.911 63.013C131.001 60.274 132.52 57.127 133.375 53.766C133.414 53.611 133.417 53.448 133.382 53.291C133.348 53.134 133.277 52.988 133.177 52.865C133.083 52.744 132.964 52.647 132.829 52.58C132.693 52.513 132.544 52.479 132.394 52.48Z" fill="#00BFFF"/>
    <path d="M237.003 45.653V45.339C237.003 45.086 237.003 44.832 236.953 44.589V44.255C236.953 43.971 236.953 43.698 236.864 43.414V43.212C236.814 42.877 236.765 42.533 236.705 42.199V41.935C236.656 41.682 236.606 41.429 236.547 41.176L236.477 40.852L236.299 40.122L236.23 39.859C236.14 39.535 236.041 39.211 235.942 38.846V38.694C235.853 38.42 235.764 38.157 235.665 37.894L235.556 37.59C235.467 37.367 235.387 37.144 235.278 36.881L235.179 36.638C235.06 36.354 234.941 36.081 234.803 35.787V35.726C234.664 35.422 234.515 35.128 234.366 34.835L234.228 34.571L233.891 33.953L233.722 33.67L233.336 33.022L233.207 32.819C233.038 32.545 232.85 32.272 232.662 31.998L232.523 31.806C232.384 31.603 232.236 31.401 232.087 31.208L231.928 30.996V30.935L231.453 30.337L231.304 30.165C231.106 29.912 230.888 29.669 230.67 29.426L230.58 29.334C230.392 29.122 230.204 28.919 230.006 28.717L229.778 28.494C229.619 28.332 229.461 28.17 229.292 28.018L229.243 27.967L229.054 27.795C228.866 27.602 228.658 27.43 228.41 27.207L228.331 27.136C228.083 26.934 227.835 26.721 227.587 26.529L227.35 26.346L226.795 25.931L226.527 25.728L225.942 25.333L225.714 25.181C225.447 24.999 225.179 24.827 224.902 24.665L224.664 24.533L224.188 24.26L223.841 24.067L223.018 23.652L222.87 23.571L221.988 23.176H221.908L220.997 22.811H220.937L219.946 22.467H219.837C219.54 22.365 219.242 22.284 218.945 22.193H218.747L217.855 21.96H217.667L216.676 21.758L215.258 21.464L214.634 21.393H214.535H214.317H214.237H213.871H213.791H213.554H213.048H212.166H212.017H211.096H210.689H210.62H210.372H210.303H209.936H209.857L208.925 21.494C208.509 21.555 208.093 21.616 207.657 21.697L206.666 21.899H206.527L205.635 22.132H205.437L204.555 22.396L204.376 22.457L203.474 22.781H203.385C203.088 22.902 202.79 23.014 202.523 23.135H202.424L201.502 23.551H201.403L200.57 23.976L200.184 24.189L199.718 24.452L199.51 24.574C199.232 24.736 198.965 24.908 198.697 25.09L198.469 25.242L197.885 25.637L197.607 25.84L197.062 26.255L196.824 26.437C196.576 26.63 196.329 26.843 196.081 27.045L195.952 27.157C195.754 27.339 195.546 27.511 195.357 27.693L195.119 27.926C194.951 28.078 194.792 28.24 194.584 28.443L194.406 28.625L193.791 29.284L193.742 29.334C193.524 29.578 193.316 29.821 193.108 30.074L192.919 30.297C192.771 30.479 192.622 30.661 192.463 30.874L192.285 31.107L191.849 31.705L191.7 31.917L191.165 32.728L191.036 32.92L190.65 33.579L190.481 33.862L190.144 34.49L190.005 34.744C189.857 35.037 189.708 35.331 189.569 35.635V35.706C189.441 35.989 189.322 36.263 189.203 36.547L189.084 36.83C188.995 37.053 188.905 37.276 188.826 37.499L188.717 37.803C188.618 38.066 188.529 38.329 188.43 38.653V38.755C188.33 39.079 188.231 39.403 188.142 39.768L188.073 40.031L187.894 40.76L187.825 41.084C187.766 41.338 187.716 41.591 187.666 41.844V42.108C187.607 42.442 187.557 42.786 187.508 43.12V43.323C187.508 43.597 187.439 43.88 187.419 44.154V44.498C187.419 44.741 187.419 44.994 187.369 45.248V45.562C187.369 45.916 187.369 46.271 187.369 46.625V71.554C187.369 71.822 187.474 72.08 187.659 72.27C187.845 72.46 188.097 72.567 188.36 72.567H200.501C200.764 72.567 201.016 72.46 201.202 72.27C201.388 72.08 201.492 71.822 201.492 71.554V46.716C201.477 46.409 201.477 46.102 201.492 45.795C201.685 43.612 202.503 41.536 203.845 39.826C205.186 38.116 206.991 36.848 209.034 36.182C209.893 35.908 210.782 35.748 211.68 35.706C212.05 35.686 212.421 35.686 212.79 35.706C213.692 35.747 214.585 35.907 215.447 36.182C217.489 36.848 219.295 38.116 220.636 39.826C221.978 41.536 222.796 43.612 222.989 45.795C223.004 46.102 223.004 46.409 222.989 46.716V71.645C222.989 71.913 223.093 72.171 223.279 72.361C223.465 72.551 223.717 72.658 223.98 72.658H236.121C236.384 72.658 236.636 72.551 236.821 72.361C237.007 72.171 237.112 71.913 237.112 71.645V46.716C237.023 46.362 237.013 46.007 237.003 45.653Z" fill="#00BFFF"/>
    <path d="M336.101 58.293H318.847C316.222 58.293 313.69 57.306 311.733 55.52C309.775 53.734 308.529 51.274 308.232 48.61C308.232 48.194 308.232 47.769 308.232 47.343V7.565C308.232 7.297 308.128 7.039 307.942 6.849C307.756 6.659 307.504 6.552 307.241 6.552H295.08C294.817 6.552 294.565 6.659 294.379 6.849C294.194 7.039 294.089 7.297 294.089 7.565V47.343C294.089 47.769 294.089 48.194 294.089 48.61C293.792 51.276 292.545 53.737 290.585 55.523C288.625 57.31 286.091 58.296 283.465 58.293H270.462C270.284 58.292 270.11 58.339 269.957 58.43C269.803 58.521 269.676 58.652 269.59 58.81L262.652 71.137C262.559 71.294 262.509 71.473 262.507 71.656C262.506 71.839 262.552 72.019 262.643 72.177C262.733 72.334 262.864 72.464 263.021 72.552C263.178 72.641 263.355 72.684 263.534 72.677H283.435C286.73 72.671 289.991 71.995 293.028 70.689C296.065 69.383 298.818 67.473 301.126 65.07C303.43 67.475 306.181 69.387 309.217 70.693C312.253 71.999 315.513 72.674 318.807 72.677H336.062C336.324 72.677 336.577 72.57 336.762 72.38C336.948 72.19 337.053 71.933 337.053 71.664V59.326C337.058 59.061 336.961 58.804 336.784 58.611C336.606 58.418 336.361 58.304 336.101 58.293Z" fill="#00BFFF"/>
    <path d="M70.087 12.368C68.732 8.82 66.388 5.757 63.346 3.558C60.303 1.359 56.696 0.122 52.971 0C55.257 0.117 57.458 0.917004 59.304 2.299C60.612 3.182 61.704 4.36 62.495 5.743C63.824 7.809 64.386 10.293 64.079 12.746C63.772 15.198 62.616 17.457 60.82 19.114C59.947 20.037 58.87 20.732 57.679 21.14C56.504 21.608 55.253 21.849 53.992 21.849C53.347 21.85 52.703 21.789 52.069 21.667C47.015 21.12 43.566 17.787 33.734 15.589L32.634 15.376C31.23 15.16 29.812 15.052 28.392 15.052C27.5 15.052 26.608 15.052 25.736 15.174C24.608 15.292 23.487 15.467 22.376 15.701L22.029 15.782H21.98C17.099 16.933 12.604 19.384 8.95201 22.887C5.30001 26.39 2.61999 30.819 1.18699 35.724C-0.247005 40.629 -0.384009 45.835 0.789991 50.811C1.96299 55.788 4.406 60.358 7.869 64.056C11.332 67.755 15.691 70.45 20.504 71.867C25.317 73.284 30.411 73.374 35.269 72.125C40.126 70.877 44.573 68.336 48.158 64.761C51.743 61.186 54.337 56.704 55.677 51.771C55.806 51.305 55.915 50.839 56.024 50.363C55.133 53.296 53.653 56.007 51.678 58.321C49.704 60.636 47.278 62.504 44.557 63.805C41.299 65.456 37.75 66.421 34.121 66.641C29.475 66.637 24.945 65.157 21.157 62.407C12.505 55.975 13.803 43.708 21.455 38.218L22.941 37.205C22.941 37.205 27.996 33.68 36.479 34.399C41.663 34.835 48.372 37.104 54.666 36.719C58.31 36.598 61.806 35.212 64.577 32.789C67.362 30.319 69.371 27.063 70.351 23.429C71.331 19.796 71.24 15.948 70.087 12.368Z" fill="#00BFFF"/>
    <path d="M54.5171 44.569C54.5121 42.578 54.1771 40.602 53.5261 38.725C49.7841 38.651 46.0591 38.197 42.4061 37.367C41.1671 37.124 39.9681 36.891 38.8381 36.699C40.4971 37.92 41.7521 39.629 42.4351 41.599C43.1181 43.569 43.1961 45.705 42.6591 47.721C42.1221 49.737 40.9951 51.538 39.4301 52.882C37.8651 54.226 35.9351 55.05 33.8991 55.243C31.8641 55.436 29.8191 54.99 28.0381 53.963C26.2571 52.936 24.8261 51.378 23.9351 49.497C23.0441 47.616 22.736 45.502 23.053 43.438C23.369 41.374 24.2951 39.457 25.7061 37.945C25.1211 38.193 24.5571 38.492 24.0211 38.836H23.962C23.962 38.836 22.9701 39.454 22.5341 39.778C20.8731 40.985 19.5151 42.577 18.5731 44.424C17.6301 46.271 17.13 48.321 17.113 50.404C17.075 52.435 17.5291 54.445 18.4331 56.254C19.3371 58.063 20.6641 59.617 22.2961 60.776C25.7721 63.292 29.9311 64.634 34.1891 64.615C36.1321 64.581 38.0581 64.239 39.8981 63.603C48.4511 60.554 54.5171 53.19 54.5171 44.569Z" fill="#7BE3FF"/>
    <path d="M42.465 12.408C43.08 11.115 44.0509 10.034 45.2599 9.29899C46.1939 8.66099 47.2589 8.25198 48.3719 8.10298C49.9769 7.80998 51.631 8.00299 53.129 8.66099C50.702 7.54999 48.0089 7.19199 45.3859 7.63399C42.7619 8.07499 40.3229 9.29498 38.3719 11.142C37.4299 12.137 36.644 13.275 36.043 14.515C37.98 15.025 39.889 15.64 41.762 16.359C41.638 15.001 41.881 13.635 42.465 12.408Z" fill="#7BE3FF"/>
</svg>
